<svg width="268" height="103" viewBox="0 0 268 103" fill="none" xmlns="http://www.w3.org/2000/svg">
<rect width="268" height="103" rx="51.5" fill="#EF4823"/>
<rect x="12.0361" y="7.08722" width="243.927" height="88.2267" rx="44.1134" stroke="white"/>
<path d="M64.2542 32.9218V42.6953C63.8909 43.1758 63.3225 43.7031 62.5491 44.2773C61.7874 44.8398 60.7737 45.3261 59.5081 45.7363C58.2424 46.1465 56.6663 46.3515 54.7795 46.3515C53.1741 46.3515 51.7034 46.082 50.3674 45.5429C49.0315 44.9922 47.8772 44.1894 46.9045 43.1347C45.9436 42.08 45.1995 40.7968 44.6721 39.2851C44.1448 37.7617 43.8811 36.0273 43.8811 34.082V32.3066C43.8811 30.373 44.1213 28.6504 44.6018 27.1386C45.094 25.6152 45.7971 24.3261 46.7112 23.2715C47.6252 22.2168 48.7268 21.4199 50.0159 20.8808C51.3167 20.33 52.7874 20.0547 54.428 20.0547C56.5256 20.0547 58.26 20.4062 59.6311 21.1093C61.0139 21.8008 62.0803 22.7617 62.8303 23.9922C63.5803 25.2226 64.0549 26.6289 64.2542 28.2109H59.9299C59.7893 27.3203 59.5139 26.5234 59.1038 25.8203C58.7053 25.1172 58.1311 24.5664 57.3811 24.1679C56.6428 23.7578 55.6819 23.5527 54.4983 23.5527C53.4788 23.5527 52.5823 23.7461 51.8088 24.1328C51.0354 24.5195 50.3909 25.0879 49.8752 25.8379C49.3713 26.5879 48.9905 27.5019 48.7327 28.58C48.4749 29.6582 48.3459 30.8886 48.3459 32.2715V34.082C48.3459 35.4883 48.4924 36.7363 48.7854 37.8261C49.0901 38.916 49.5237 39.8359 50.0862 40.5859C50.6604 41.3359 51.3577 41.9043 52.178 42.291C52.9983 42.666 53.9241 42.8535 54.9553 42.8535C55.9631 42.8535 56.7893 42.7715 57.4338 42.6074C58.0784 42.4316 58.5881 42.2265 58.9631 41.9922C59.3499 41.7461 59.6487 41.5117 59.8596 41.289V36.209H54.5334V32.9218H64.2542ZM78.1038 46.3515C76.6975 46.3515 75.426 46.123 74.2893 45.666C73.1643 45.1972 72.2034 44.5468 71.4065 43.7148C70.6213 42.8828 70.0178 41.9043 69.5959 40.7793C69.1741 39.6543 68.9631 38.4414 68.9631 37.1406V36.4375C68.9631 34.9492 69.1799 33.6015 69.6135 32.3945C70.0471 31.1875 70.6506 30.1562 71.4241 29.3008C72.1975 28.4336 73.1116 27.7715 74.1663 27.3144C75.2209 26.8574 76.3635 26.6289 77.594 26.6289C78.9534 26.6289 80.1428 26.8574 81.1624 27.3144C82.1819 27.7715 83.0256 28.416 83.6936 29.248C84.3733 30.0683 84.8772 31.0468 85.2053 32.1836C85.5452 33.3203 85.7151 34.5742 85.7151 35.9453V37.7558H71.0198V34.7148H81.5315V34.3808C81.5081 33.6191 81.3557 32.9043 81.0745 32.2363C80.8049 31.5683 80.3889 31.0293 79.8264 30.6191C79.2639 30.209 78.5139 30.0039 77.5764 30.0039C76.8733 30.0039 76.2463 30.1562 75.6956 30.4609C75.1565 30.7539 74.7053 31.1816 74.342 31.7441C73.9788 32.3066 73.6975 32.9863 73.4983 33.7832C73.3108 34.5683 73.217 35.4531 73.217 36.4375V37.1406C73.217 37.9726 73.3284 38.7461 73.551 39.4609C73.7854 40.164 74.1252 40.7793 74.5706 41.3066C75.0159 41.834 75.5549 42.25 76.1877 42.5547C76.8206 42.8476 77.5413 42.9941 78.3499 42.9941C79.3694 42.9941 80.2776 42.789 81.0745 42.3789C81.8713 41.9687 82.5627 41.3886 83.1487 40.6386L85.3811 42.8008C84.9709 43.3984 84.4377 43.9726 83.7815 44.5234C83.1252 45.0625 82.3225 45.5019 81.3733 45.8418C80.4358 46.1816 79.3459 46.3515 78.1038 46.3515ZM98.7385 26.9804V30.0742H88.0159V26.9804H98.7385ZM91.1096 22.3222H95.3459V40.7441C95.3459 41.33 95.428 41.7812 95.592 42.0976C95.7678 42.4023 96.0081 42.6074 96.3127 42.7129C96.6174 42.8183 96.9749 42.8711 97.385 42.8711C97.678 42.8711 97.9592 42.8535 98.2288 42.8183C98.4983 42.7832 98.7151 42.748 98.8792 42.7129L98.8967 45.9472C98.5452 46.0527 98.135 46.1465 97.6663 46.2285C97.2092 46.3105 96.6819 46.3515 96.0842 46.3515C95.1116 46.3515 94.2502 46.1816 93.5002 45.8418C92.7502 45.4902 92.1643 44.9218 91.7424 44.1367C91.3206 43.3515 91.1096 42.3086 91.1096 41.0078V22.3222ZM58.0667 81.4082C58.0667 80.8808 57.9846 80.4121 57.8206 80.0019C57.6682 79.5918 57.3928 79.2168 56.9944 78.8769C56.5959 78.5371 56.0334 78.209 55.3069 77.8925C54.592 77.5644 53.678 77.2304 52.5647 76.8906C51.3459 76.5156 50.2209 76.0996 49.1897 75.6425C48.1702 75.1738 47.2795 74.6347 46.5178 74.0254C45.7561 73.4043 45.1643 72.6953 44.7424 71.8984C44.3206 71.0898 44.1096 70.1582 44.1096 69.1035C44.1096 68.0605 44.3264 67.1113 44.76 66.2558C45.2053 65.4004 45.8323 64.6621 46.6409 64.041C47.4612 63.4082 48.428 62.9218 49.5413 62.582C50.6545 62.2304 51.885 62.0547 53.2327 62.0547C55.1311 62.0547 56.7659 62.4062 58.137 63.1093C59.5198 63.8125 60.5803 64.7558 61.3186 65.9394C62.0686 67.123 62.4436 68.4297 62.4436 69.8593H58.0667C58.0667 69.0156 57.885 68.2715 57.5217 67.6269C57.1702 66.9707 56.6311 66.455 55.9045 66.08C55.1897 65.705 54.2815 65.5175 53.1799 65.5175C52.137 65.5175 51.2698 65.6758 50.5784 65.9922C49.887 66.3086 49.3713 66.7363 49.0315 67.2754C48.6917 67.8144 48.5217 68.4238 48.5217 69.1035C48.5217 69.584 48.6331 70.0234 48.8557 70.4218C49.0784 70.8086 49.4182 71.1718 49.8752 71.5117C50.3323 71.8398 50.9065 72.1504 51.5979 72.4433C52.2893 72.7363 53.1038 73.0175 54.0413 73.2871C55.4592 73.709 56.6956 74.1777 57.7502 74.6933C58.8049 75.1972 59.6838 75.7715 60.387 76.416C61.0901 77.0605 61.6174 77.7929 61.969 78.6133C62.3206 79.4218 62.4963 80.3418 62.4963 81.373C62.4963 82.4511 62.2795 83.4238 61.8459 84.291C61.4124 85.1465 60.7913 85.8789 59.9827 86.4883C59.1858 87.0859 58.2249 87.5488 57.0999 87.8769C55.9866 88.1933 54.7444 88.3515 53.3733 88.3515C52.1428 88.3515 50.9299 88.1875 49.7346 87.8593C48.551 87.5312 47.4729 87.0332 46.5002 86.3652C45.5276 85.6855 44.7542 84.8418 44.1799 83.834C43.6057 82.8144 43.3186 81.625 43.3186 80.2656H47.7307C47.7307 81.0976 47.8713 81.8066 48.1526 82.3925C48.4456 82.9785 48.8499 83.459 49.3655 83.834C49.8811 84.1972 50.4788 84.4668 51.1584 84.6425C51.8499 84.8183 52.5881 84.9062 53.3733 84.9062C54.4045 84.9062 55.2659 84.7597 55.9573 84.4668C56.6604 84.1738 57.1877 83.7636 57.5393 83.2363C57.8909 82.709 58.0667 82.0996 58.0667 81.4082ZM75.6956 68.9804V72.0742H64.9729V68.9804H75.6956ZM68.0667 64.3222H72.303V82.7441C72.303 83.33 72.385 83.7812 72.5491 84.0976C72.7249 84.4023 72.9651 84.6074 73.2698 84.7129C73.5745 84.8183 73.9319 84.8711 74.342 84.8711C74.635 84.8711 74.9163 84.8535 75.1858 84.8183C75.4553 84.7832 75.6721 84.748 75.8362 84.7129L75.8538 87.9472C75.5022 88.0527 75.092 88.1465 74.6233 88.2285C74.1663 88.3105 73.6389 88.3515 73.0413 88.3515C72.0686 88.3515 71.2073 88.1816 70.4573 87.8418C69.7073 87.4902 69.1213 86.9218 68.6995 86.1367C68.2776 85.3515 68.0667 84.3086 68.0667 83.0078V64.3222ZM90.6877 84.1855V75.1152C90.6877 74.4355 90.5647 73.8496 90.3186 73.3574C90.0725 72.8652 89.6975 72.4843 89.1936 72.2148C88.7014 71.9453 88.0803 71.8105 87.3303 71.8105C86.6389 71.8105 86.0413 71.9277 85.5374 72.1621C85.0334 72.3965 84.6409 72.7129 84.3596 73.1113C84.0784 73.5097 83.9377 73.9609 83.9377 74.4648H79.719C79.719 73.7148 79.9006 72.9883 80.2639 72.2851C80.6272 71.582 81.1545 70.955 81.8459 70.4043C82.5374 69.8535 83.3635 69.4199 84.3245 69.1035C85.2854 68.7871 86.3635 68.6289 87.5588 68.6289C88.9885 68.6289 90.2542 68.8691 91.3557 69.3496C92.469 69.83 93.342 70.5566 93.9749 71.5293C94.6194 72.4902 94.9417 73.6972 94.9417 75.1504V83.6054C94.9417 84.4726 95.0002 85.2519 95.1174 85.9433C95.2463 86.623 95.428 87.2148 95.6624 87.7187V88H91.3206C91.1213 87.5429 90.9631 86.9629 90.8459 86.2597C90.7405 85.5449 90.6877 84.8535 90.6877 84.1855ZM91.303 76.4336L91.3381 79.0527H88.2971C87.512 79.0527 86.8206 79.1289 86.2229 79.2812C85.6252 79.4218 85.1272 79.6328 84.7288 79.914C84.3303 80.1953 84.0315 80.5351 83.8323 80.9336C83.6331 81.332 83.5334 81.7832 83.5334 82.2871C83.5334 82.791 83.6506 83.2539 83.885 83.6758C84.1194 84.0859 84.4592 84.4082 84.9045 84.6425C85.3616 84.8769 85.9124 84.9941 86.5569 84.9941C87.4241 84.9941 88.1799 84.8183 88.8245 84.4668C89.4807 84.1035 89.9963 83.664 90.3713 83.1484C90.7463 82.6211 90.9456 82.123 90.969 81.6543L92.3401 83.5351C92.1995 84.0156 91.9592 84.5312 91.6194 85.082C91.2795 85.6328 90.8342 86.1601 90.2834 86.664C89.7444 87.1562 89.094 87.5605 88.3323 87.8769C87.5823 88.1933 86.7151 88.3515 85.7307 88.3515C84.4885 88.3515 83.3811 88.1054 82.4084 87.6133C81.4358 87.1093 80.6741 86.4355 80.1233 85.5918C79.5725 84.7363 79.2971 83.7695 79.2971 82.6914C79.2971 81.6836 79.4846 80.7929 79.8596 80.0195C80.2463 79.2343 80.8088 78.5781 81.5471 78.0508C82.2971 77.5234 83.2112 77.125 84.2893 76.8554C85.3674 76.5742 86.5979 76.4336 87.9807 76.4336H91.303ZM104.625 72.6015V88H100.389V68.9804H104.432L104.625 72.6015ZM110.444 68.8574L110.408 72.7949C110.151 72.748 109.869 72.7129 109.565 72.6894C109.272 72.666 108.979 72.6543 108.686 72.6543C107.959 72.6543 107.321 72.7597 106.77 72.9707C106.219 73.1699 105.756 73.4629 105.381 73.8496C105.018 74.2246 104.737 74.6816 104.537 75.2207C104.338 75.7597 104.221 76.3633 104.186 77.0312L103.219 77.1015C103.219 75.9062 103.336 74.7988 103.571 73.7793C103.805 72.7597 104.156 71.8633 104.625 71.0898C105.106 70.3164 105.703 69.7129 106.418 69.2793C107.145 68.8457 107.983 68.6289 108.932 68.6289C109.19 68.6289 109.465 68.6523 109.758 68.6992C110.063 68.7461 110.291 68.7988 110.444 68.8574ZM123.696 68.9804V72.0742H112.973V68.9804H123.696ZM116.067 64.3222H120.303V82.7441C120.303 83.33 120.385 83.7812 120.549 84.0976C120.725 84.4023 120.965 84.6074 121.27 84.7129C121.574 84.8183 121.932 84.8711 122.342 84.8711C122.635 84.8711 122.916 84.8535 123.186 84.8183C123.455 84.7832 123.672 84.748 123.836 84.7129L123.854 87.9472C123.502 88.0527 123.092 88.1465 122.623 88.2285C122.166 88.3105 121.639 88.3515 121.041 88.3515C120.069 88.3515 119.207 88.1816 118.457 87.8418C117.707 87.4902 117.121 86.9218 116.699 86.1367C116.278 85.3515 116.067 84.3086 116.067 83.0078V64.3222ZM136.35 88.3515C134.944 88.3515 133.672 88.123 132.535 87.666C131.41 87.1972 130.449 86.5468 129.653 85.7148C128.867 84.8828 128.264 83.9043 127.842 82.7793C127.42 81.6543 127.209 80.4414 127.209 79.1406V78.4375C127.209 76.9492 127.426 75.6015 127.86 74.3945C128.293 73.1875 128.897 72.1562 129.67 71.3008C130.444 70.4336 131.358 69.7715 132.412 69.3144C133.467 68.8574 134.61 68.6289 135.84 68.6289C137.199 68.6289 138.389 68.8574 139.408 69.3144C140.428 69.7715 141.272 70.416 141.94 71.248C142.619 72.0683 143.123 73.0468 143.451 74.1836C143.791 75.3203 143.961 76.5742 143.961 77.9453V79.7558H129.266V76.7148H139.778V76.3808C139.754 75.6191 139.602 74.9043 139.321 74.2363C139.051 73.5683 138.635 73.0293 138.073 72.6191C137.51 72.209 136.76 72.0039 135.823 72.0039C135.119 72.0039 134.492 72.1562 133.942 72.4609C133.403 72.7539 132.951 73.1816 132.588 73.7441C132.225 74.3066 131.944 74.9863 131.744 75.7832C131.557 76.5683 131.463 77.4531 131.463 78.4375V79.1406C131.463 79.9726 131.574 80.7461 131.797 81.4609C132.031 82.164 132.371 82.7793 132.817 83.3066C133.262 83.834 133.801 84.25 134.434 84.5547C135.067 84.8476 135.787 84.9941 136.596 84.9941C137.615 84.9941 138.524 84.789 139.321 84.3789C140.117 83.9687 140.809 83.3886 141.395 82.6386L143.627 84.8008C143.217 85.3984 142.684 85.9726 142.028 86.5234C141.371 87.0625 140.569 87.5019 139.619 87.8418C138.682 88.1816 137.592 88.3515 136.35 88.3515ZM159.867 84.0625V61H164.121V88H160.272L159.867 84.0625ZM147.492 78.7011V78.332C147.492 76.8906 147.662 75.5781 148.002 74.3945C148.342 73.1992 148.834 72.1738 149.479 71.3183C150.123 70.4511 150.908 69.789 151.834 69.332C152.76 68.8633 153.803 68.6289 154.963 68.6289C156.112 68.6289 157.119 68.8515 157.987 69.2968C158.854 69.7422 159.592 70.3808 160.201 71.2129C160.811 72.0332 161.297 73.0175 161.66 74.166C162.024 75.3027 162.281 76.5683 162.434 77.9629V79.1406C162.281 80.5 162.024 81.7422 161.66 82.8672C161.297 83.9922 160.811 84.9648 160.201 85.7851C159.592 86.6054 158.848 87.2383 157.969 87.6836C157.102 88.1289 156.088 88.3515 154.928 88.3515C153.78 88.3515 152.742 88.1113 151.817 87.6308C150.903 87.1504 150.123 86.4765 149.479 85.6093C148.834 84.7422 148.342 83.7226 148.002 82.5508C147.662 81.3672 147.492 80.084 147.492 78.7011ZM151.729 78.332V78.7011C151.729 79.5683 151.805 80.3769 151.957 81.1269C152.121 81.8769 152.373 82.539 152.713 83.1133C153.053 83.6758 153.492 84.1211 154.031 84.4492C154.582 84.7656 155.239 84.9238 156 84.9238C156.961 84.9238 157.752 84.7129 158.373 84.291C158.994 83.8691 159.481 83.3008 159.832 82.5859C160.196 81.8593 160.442 81.0508 160.571 80.1601V76.9785C160.5 76.2871 160.354 75.6425 160.131 75.0449C159.92 74.4472 159.633 73.9258 159.27 73.4804C158.906 73.0234 158.455 72.6718 157.916 72.4258C157.389 72.1679 156.762 72.039 156.035 72.039C155.262 72.039 154.606 72.2031 154.067 72.5312C153.528 72.8593 153.082 73.3105 152.731 73.8847C152.391 74.459 152.139 75.1269 151.975 75.8886C151.811 76.6504 151.729 77.4648 151.729 78.332ZM174.438 62.4062L174.016 80.459H170.395L169.955 62.4062H174.438ZM169.832 85.9961C169.832 85.3515 170.043 84.8125 170.465 84.3789C170.899 83.9336 171.496 83.7109 172.258 83.7109C173.008 83.7109 173.6 83.9336 174.033 84.3789C174.467 84.8125 174.684 85.3515 174.684 85.9961C174.684 86.6172 174.467 87.1504 174.033 87.5957C173.6 88.0293 173.008 88.2461 172.258 88.2461C171.496 88.2461 170.899 88.0293 170.465 87.5957C170.043 87.1504 169.832 86.6172 169.832 85.9961Z" fill="white"/>
<path d="M210.757 14.5791C210.983 13.5242 212.488 13.5242 212.713 14.5791L214.79 24.3047C214.934 24.9771 215.698 25.3073 216.286 24.9514L225.393 19.4418C226.339 18.8695 227.377 20.0286 226.704 20.9059L220.83 28.5664C220.372 29.1645 220.714 30.0358 221.458 30.161L231.618 31.8731C232.73 32.0604 232.73 33.6579 231.618 33.8453L221.458 35.5574C220.714 35.6826 220.372 36.5538 220.83 37.152L226.704 44.8125C227.377 45.6898 226.339 46.8488 225.393 46.2766L216.286 40.767C215.698 40.4111 214.934 40.7413 214.79 41.4137L212.713 51.1393C212.488 52.1942 210.983 52.1941 210.757 51.1393L208.68 41.4137C208.537 40.7413 207.773 40.4111 207.185 40.767L198.078 46.2766C197.132 46.8488 196.094 45.6898 196.766 44.8125L202.64 37.152C203.099 36.5538 202.756 35.6826 202.013 35.5574L191.852 33.8453C190.741 33.6579 190.741 32.0604 191.852 31.8731L202.013 30.161C202.756 30.0358 203.099 29.1645 202.64 28.5664L196.766 20.9059C196.094 20.0286 197.132 18.8695 198.078 19.4418L207.185 24.9514C207.773 25.3073 208.537 24.9771 208.68 24.3047L210.757 14.5791Z" fill="white"/>
</svg>
